HIERARCHY
ROOT root
{
	OFFSET 0.000000 0.000000 0.000000
	CHANNELS 6 Xposition Yposition Zposition Zrotation Yrotation Xrotation
	JOINT lhip
	{
		OFFSET 0.058581 -0.082280 -0.017664
		CHANNELS 3 Zrotation Yrotation Xrotation
		JOINT lknee
		{
			OFFSET 0.043451 -0.386469 0.008037
			CHANNELS 3 Zrotation Yrotation Xrotation
			JOINT lankle
			{
				OFFSET -0.014790 -0.426874 -0.037428
				CHANNELS 3 Zrotation Yrotation Xrotation
				JOINT ltoe
				{
					OFFSET 0.041054 -0.060286 0.122042
					CHANNELS 3 Zrotation Yrotation Xrotation
					End Site
					{
						OFFSET 0.000000 0.000000 0.000000
					}
				}
			}
		}
	}
	JOINT rhip
	{
		OFFSET -0.060310 -0.090513 -0.013543
		CHANNELS 3 Zrotation Yrotation Xrotation
		JOINT rknee
		{
			OFFSET -0.043257 -0.383688 -0.004843
			CHANNELS 3 Zrotation Yrotation Xrotation
			JOINT rankle
			{
				OFFSET 0.019056 -0.420046 -0.034562
				CHANNELS 3 Zrotation Yrotation Xrotation
				JOINT rtoe
				{
					OFFSET -0.034840 -0.062106 0.130323
					CHANNELS 3 Zrotation Yrotation Xrotation
					End Site
					{
						OFFSET 0.000000 0.000000 0.000000
					}
				}
			}
		}
	}
	JOINT lowerback
	{
		OFFSET 0.004439 0.124404 -0.038385
		CHANNELS 3 Zrotation Yrotation Xrotation
		JOINT upperback
		{
			OFFSET 0.004488 0.137956 0.026820
			CHANNELS 3 Zrotation Yrotation Xrotation
			JOINT chest
			{
				OFFSET -0.002265 0.056032 0.002855
				CHANNELS 3 Zrotation Yrotation Xrotation
				JOINT lowerneck
				{
					OFFSET -0.013390 0.211636 -0.033468
					CHANNELS 3 Zrotation Yrotation Xrotation
					JOINT upperneck
					{
						OFFSET 0.010113 0.088937 0.050410
						CHANNELS 3 Zrotation Yrotation Xrotation
						End Site
						{
							OFFSET 0.000000 0.000000 0.000000
						}
					}
				}
				JOINT lclavicle
				{
					OFFSET 0.071702 0.114000 -0.018898
					CHANNELS 3 Zrotation Yrotation Xrotation
					JOINT lshoulder
					{
						OFFSET 0.122921 0.045205 -0.019046
						CHANNELS 3 Zrotation Yrotation Xrotation
						JOINT lelbow
						{
							OFFSET 0.255332 -0.015649 -0.022946
							CHANNELS 3 Zrotation Yrotation Xrotation
							JOINT lwrist
							{
								OFFSET 0.265709 0.012698 -0.007375
								CHANNELS 3 Zrotation Yrotation Xrotation
								End Site
								{
									OFFSET 0.000000 0.000000 0.000000
								}
							}
						}
					}
				}
				JOINT rclavicle
				{
					OFFSET -0.082954 0.112472 -0.023707
					CHANNELS 3 Zrotation Yrotation Xrotation
					JOINT rshoulder
					{
						OFFSET -0.113228 0.046853 -0.008472
						CHANNELS 3 Zrotation Yrotation Xrotation
						JOINT relbow
						{
							OFFSET -0.260127 -0.014369 -0.031269
							CHANNELS 3 Zrotation Yrotation Xrotation
							JOINT rwrist
							{
								OFFSET -0.269108 0.006794 -0.006027
								CHANNELS 3 Zrotation Yrotation Xrotation
								End Site
								{
									OFFSET 0.000000 0.000000 0.000000
								}
							}
						}
					}
				}
			}
		}
	}
}
MOTION
Frames: 10
Frame Time: 0.033333
-0.254170 0.553271 0.987415 -1.366306 1.550566 85.909791 8.079933 6.356574 10.955142 -4.628557 -0.626863 -3.875740 -2.950254 15.862524 -14.437890 0.000000 -0.000000 0.000000 -2.057860 -3.496274 3.636634 4.401066 0.947673 9.574059 4.598005 -10.718611 -12.477567 0.000000 -0.000000 0.000000 3.205062 -0.982444 -0.628378 0.999931 -2.629934 6.481464 -1.443769 -2.406268 1.322742 5.172605 3.840782 -10.238502 -2.569921 -2.003134 13.301370 -17.885677 -1.002517 -2.116152 -24.264036 -6.359178 2.588718 2.945722 -26.885798 3.599423 -12.795955 -13.957829 3.480560 18.043438 5.218029 -5.185621 20.301675 14.531297 2.708633 -6.448015 23.140293 -2.397121 16.233198 7.839569 -4.259241 
-0.254053 0.553972 0.988187 -1.347713 1.547917 85.819201 8.044265 6.462315 11.009431 -4.516422 -1.186662 -3.907008 -3.163290 16.359220 -14.388886 0.000000 -0.000000 0.000000 -2.024768 -3.507055 3.718462 4.493383 1.728925 9.453082 5.050696 -11.546078 -12.520981 0.000000 -0.000000 0.000000 3.150506 -0.906338 -0.599073 0.959986 -2.651362 5.888170 -1.447352 -2.355962 1.689230 5.250594 3.647538 -9.869475 -2.638322 -2.219327 13.617985 -16.046703 -1.142216 -3.042608 -20.827114 -6.941677 0.835129 2.886737 -24.491587 1.541582 -11.847606 -14.826951 4.606891 16.211194 5.480972 -6.417870 16.393837 15.347642 0.301908 -6.125639 21.038622 -4.654410 14.385316 8.204671 -4.300801 
-0.253773 0.555018 0.988790 -1.319866 1.553642 85.782775 8.038840 6.538395 10.975665 -4.452669 -1.659413 -3.885803 -3.349514 16.748443 -14.341054 0.000000 -0.000000 0.000000 -2.007966 -3.580639 3.711515 4.523868 2.261556 9.422951 5.217462 -12.062137 -12.474892 0.000000 -0.000000 0.000000 3.135303 -0.896990 -0.529562 0.887188 -2.641648 5.402302 -1.441861 -2.287678 1.918804 5.338635 3.444993 -9.601198 -2.681994 -2.359983 13.849770 -14.666162 -1.088212 -3.871708 -17.598002 -7.125577 -0.611670 2.997394 -23.553392 -0.470259 -11.238469 -15.249034 4.769377 14.751674 5.594311 -7.495510 12.920537 15.870528 -1.688232 -6.386692 19.806340 -6.619065 13.914394 8.279426 -4.249730 
-0.253320 0.556297 0.989197 -1.265564 1.552182 85.733304 8.039591 6.617473 10.954664 -4.399343 -2.123826 -3.894249 -3.582692 17.091893 -14.318770 0.000000 -0.000000 0.000000 -2.018463 -3.672295 3.754164 4.558110 2.815592 9.342889 5.407314 -12.576248 -12.432704 0.000000 -0.000000 0.000000 3.166881 -0.889890 -0.457729 0.749128 -2.643292 4.951676 -1.432722 -2.270783 2.092487 5.337474 3.223926 -9.273530 -2.651990 -2.432965 13.980198 -12.902477 -1.280605 -4.732408 -14.480671 -7.274631 -2.122261 3.316083 -22.104585 -2.230824 -10.790767 -16.045859 4.916061 12.839965 5.789568 -8.571397 9.361545 16.348001 -3.803199 -6.239977 18.407474 -7.709339 13.187982 8.287663 -4.203012 
-0.253075 0.557026 0.989476 -1.251866 1.557858 85.701928 8.055833 6.692561 10.947316 -4.375898 -2.470835 -3.892463 -3.684937 17.352688 -14.306314 0.000000 -0.000000 0.000000 -2.023108 -3.779434 3.809934 4.584240 3.149280 9.270908 5.551627 -12.855527 -12.425896 0.000000 -0.000000 0.000000 3.172963 -0.845332 -0.354184 0.675417 -2.654592 4.563344 -1.415385 -2.237152 2.236534 5.335668 3.110926 -9.029849 -2.618519 -2.508227 14.026874 -12.021000 -1.434373 -5.284146 -12.700795 -7.469126 -2.934358 3.092081 -21.384335 -3.141664 -9.789696 -16.145946 5.479740 11.873065 5.898040 -9.165982 7.491039 16.403413 -4.658952 -5.918485 17.881394 -7.850358 12.396219 8.105946 -3.857216 
-0.252729 0.558008 0.989809 -1.232864 1.559001 85.689485 8.060879 6.703107 10.900820 -4.363749 -2.723907 -3.904902 -3.743223 17.574535 -14.281907 0.000000 -0.000000 0.000000 -2.032803 -3.876783 3.886432 4.591908 3.469093 9.089500 5.663529 -13.110525 -12.355191 0.000000 -0.000000 0.000000 3.156179 -0.802324 -0.319450 0.611277 -2.656665 4.227522 -1.402240 -2.196970 2.339245 5.360537 3.019648 -8.891372 -2.643671 -2.566384 14.296704 -10.895115 -1.493456 -5.824830 -10.752603 -7.720854 -3.781091 3.131598 -20.725481 -4.037002 -9.805450 -16.535649 5.659568 10.732449 6.102097 -9.920393 5.559364 16.926102 -5.840300 -5.920679 16.174069 -8.151785 12.765340 8.431198 -3.099579 
-0.252363 0.558944 0.990053 -1.231342 1.547963 85.687375 8.051932 6.733979 10.837872 -4.348182 -3.005841 -3.920457 -3.821156 17.824077 -14.252863 0.000000 -0.000000 0.000000 -2.047497 -4.009342 3.930752 4.595026 3.859727 8.936152 5.799083 -13.387790 -12.333850 0.000000 -0.000000 0.000000 3.113804 -0.706976 -0.296195 0.560259 -2.677584 3.898806 -1.341224 -2.174892 2.462420 5.285831 2.940941 -8.747128 -2.624786 -2.593396 14.483742 -9.759778 -1.712213 -6.374048 -9.203384 -8.163298 -4.480470 2.809770 -19.517493 -5.030599 -8.433715 -16.828761 5.700894 9.675720 6.263860 -10.575379 3.761230 17.259773 -6.775421 -5.308975 14.774311 -8.147948 12.407790 8.503492 -2.597878 
-0.252058 0.559872 0.990220 -1.251136 1.570118 85.683652 8.087611 6.737069 10.803462 -4.354457 -3.098326 -3.965115 -3.941018 17.924935 -14.215939 0.000000 -0.000000 0.000000 -2.032507 -4.022771 3.990556 4.609337 4.042501 8.760911 5.869066 -13.569511 -12.253793 0.000000 -0.000000 0.000000 3.089746 -0.671083 -0.221684 0.564572 -2.673210 3.635143 -1.304210 -2.154213 2.457737 5.320266 3.076226 -8.619388 -2.751664 -2.649124 14.654090 -8.904848 -1.814986 -6.719809 -7.716455 -8.218806 -5.095213 2.966851 -18.870992 -4.811229 -10.212736 -17.448111 6.157454 8.916817 6.408817 -10.989138 2.262029 17.560797 -7.678998 -5.196479 13.676060 -7.796681 13.143910 8.465167 -1.941066 
-0.251712 0.560670 0.990445 -1.282036 1.580218 85.668196 8.077292 6.777508 10.782305 -4.318227 -3.308998 -4.005632 -3.983235 18.140279 -14.177920 0.000000 -0.000000 0.000000 -2.032792 -4.118478 4.033985 4.612214 4.344389 8.631427 6.002240 -13.773188 -12.215490 0.000000 -0.000000 0.000000 3.044436 -0.645681 -0.238092 0.574585 -2.684545 3.468547 -1.244222 -2.088334 2.579576 5.234117 3.099480 -8.602282 -2.784450 -2.633660 14.736197 -8.311105 -1.898533 -7.194136 -6.402466 -8.591623 -5.716684 2.625482 -18.271829 -5.522319 -9.168207 -17.371729 6.512065 8.409650 6.506378 -11.417266 0.901413 17.721426 -8.274682 -4.857535 13.065944 -7.940640 12.814045 8.384021 -1.473888 
-0.251396 0.561609 0.990608 -1.324837 1.588896 85.636975 8.098278 6.889713 10.788053 -4.321368 -3.424112 -4.044528 -4.054025 18.191941 -14.157846 0.000000 -0.000000 0.000000 -2.036573 -4.142695 4.032809 4.611655 4.506660 8.598349 6.082010 -13.872784 -12.198007 0.000000 -0.000000 0.000000 3.067832 -0.625856 -0.166532 0.533929 -2.702870 3.326337 -1.241211 -2.114409 2.545342 5.123425 3.211513 -8.559415 -2.795016 -2.607343 14.817052 -7.629636 -2.129241 -7.585119 -5.002438 -8.499452 -6.534899 2.499841 -17.509622 -5.783029 -9.632381 -17.419578 7.598459 7.880567 6.671566 -11.675623 -0.202664 17.746761 -8.990137 -4.687272 12.703338 -7.826907 13.257846 8.405064 -1.277038 
